<svg width="1024" height="753" viewBox="0 0 1024 753" fill="none" xmlns="http://www.w3.org/2000/svg">
<g opacity="0.2" filter="url(#filter0_f_175_198)">
<ellipse cx="544.5" cy="34" rx="670.5" ry="350" fill="#9747FF" fill-opacity="0.95"/>
</g>
<path d="M65.0349 270C66.5302 270 67.6622 270.63 68.4308 271.891C69.2134 273.138 69.6047 274.953 69.6047 277.336C69.6047 279.719 69.2134 281.541 68.4308 282.802C67.6622 284.063 66.5302 284.693 65.0349 284.693C63.5536 284.693 62.4216 284.063 61.639 282.802C60.8564 281.541 60.4651 279.719 60.4651 277.336C60.4651 274.967 60.8564 273.152 61.639 271.891C62.4216 270.63 63.5536 270 65.0349 270ZM61.9534 277.336C61.9534 279.026 62.1072 280.35 62.4146 281.306L67.0683 272.099C66.5791 271.448 65.9013 271.122 65.0349 271.122C64.0706 271.122 63.316 271.635 62.771 272.66C62.2259 273.672 61.9534 275.23 61.9534 277.336ZM65.0349 283.55C66.0131 283.55 66.7748 283.044 67.3198 282.033C67.8648 281.008 68.1373 279.442 68.1373 277.336C68.1373 275.549 67.9627 274.163 67.6133 273.18L62.9596 282.469C63.4627 283.19 64.1545 283.55 65.0349 283.55Z" fill="url(#paint0_linear_175_198)" fill-opacity="0.6"/>
<path d="M66.2926 307.135H69.3741V308.236H61.3874V307.135H64.9511V295.455L61.5551 297.471L60.9682 296.536L65.1607 293.959H66.2926V307.135Z" fill="url(#paint1_linear_175_198)" fill-opacity="0.6"/>
<path d="M65.0349 317.502C66.5302 317.502 67.6622 318.133 68.4308 319.393C69.2134 320.64 69.6047 322.455 69.6047 324.838C69.6047 327.221 69.2134 329.043 68.4308 330.304C67.6622 331.565 66.5302 332.195 65.0349 332.195C63.5536 332.195 62.4216 331.565 61.639 330.304C60.8564 329.043 60.4651 327.221 60.4651 324.838C60.4651 322.469 60.8564 320.654 61.639 319.393C62.4216 318.133 63.5536 317.502 65.0349 317.502ZM61.9534 324.838C61.9534 326.529 62.1072 327.852 62.4146 328.808L67.0683 319.601C66.5791 318.95 65.9013 318.624 65.0349 318.624C64.0706 318.624 63.316 319.137 62.771 320.162C62.2259 321.174 61.9534 322.732 61.9534 324.838ZM65.0349 331.052C66.0131 331.052 66.7748 330.546 67.3198 329.535C67.8648 328.51 68.1373 326.944 68.1373 324.838C68.1373 323.051 67.9627 321.665 67.6133 320.682L62.9596 329.971C63.4627 330.692 64.1545 331.052 65.0349 331.052Z" fill="url(#paint2_linear_175_198)" fill-opacity="0.6"/>
<path d="M66.2926 354.637H69.3741V355.738H61.3874V354.637H64.9511V342.957L61.5551 344.973L60.9682 344.038L65.1607 341.461H66.2926V354.637Z" fill="url(#paint3_linear_175_198)" fill-opacity="0.6"/>
<path d="M66.2926 378.388H69.3741V379.489H61.3874V378.388H64.9511V366.708L61.5551 368.724L60.9682 367.789L65.1607 365.212H66.2926V378.388Z" fill="url(#paint4_linear_175_198)" fill-opacity="0.6"/>
<path d="M65.0349 388.755C66.5302 388.755 67.6622 389.386 68.4308 390.646C69.2134 391.893 69.6047 393.708 69.6047 396.091C69.6047 398.474 69.2134 400.296 68.4308 401.557C67.6622 402.818 66.5302 403.448 65.0349 403.448C63.5536 403.448 62.4216 402.818 61.639 401.557C60.8564 400.296 60.4651 398.474 60.4651 396.091C60.4651 393.722 60.8564 391.907 61.639 390.646C62.4216 389.386 63.5536 388.755 65.0349 388.755ZM61.9534 396.091C61.9534 397.782 62.1072 399.105 62.4146 400.061L67.0683 390.854C66.5791 390.203 65.9013 389.878 65.0349 389.878C64.0706 389.878 63.316 390.39 62.771 391.415C62.2259 392.427 61.9534 393.985 61.9534 396.091ZM65.0349 402.305C66.0131 402.305 66.7748 401.8 67.3198 400.788C67.8648 399.763 68.1373 398.197 68.1373 396.091C68.1373 394.304 67.9627 392.919 67.6133 391.935L62.9596 401.225C63.4627 401.945 64.1545 402.305 65.0349 402.305Z" fill="url(#paint5_linear_175_198)" fill-opacity="0.6"/>
<path d="M66.2926 425.89H69.3741V426.992H61.3874V425.89H64.9511V414.21L61.5551 416.226L60.9682 415.291L65.1607 412.714H66.2926V425.89Z" fill="url(#paint6_linear_175_198)" fill-opacity="0.6"/>
<path d="M65.0349 436.257C66.5302 436.257 67.6622 436.888 68.4308 438.149C69.2134 439.396 69.6047 441.211 69.6047 443.594C69.6047 445.977 69.2134 447.798 68.4308 449.059C67.6622 450.32 66.5302 450.95 65.0349 450.95C63.5536 450.95 62.4216 450.32 61.639 449.059C60.8564 447.798 60.4651 445.977 60.4651 443.594C60.4651 441.224 60.8564 439.409 61.639 438.149C62.4216 436.888 63.5536 436.257 65.0349 436.257ZM61.9534 443.594C61.9534 445.284 62.1072 446.607 62.4146 447.563L67.0683 438.356C66.5791 437.705 65.9013 437.38 65.0349 437.38C64.0706 437.38 63.316 437.892 62.771 438.918C62.2259 439.929 61.9534 441.488 61.9534 443.594ZM65.0349 449.807C66.0131 449.807 66.7748 449.302 67.3198 448.29C67.8648 447.265 68.1373 445.699 68.1373 443.594C68.1373 441.806 67.9627 440.421 67.6133 439.437L62.9596 448.727C63.4627 449.447 64.1545 449.807 65.0349 449.807Z" fill="url(#paint7_linear_175_198)" fill-opacity="0.6"/>
<path d="M65.0349 460.008C66.5302 460.008 67.6622 460.639 68.4308 461.9C69.2134 463.147 69.6047 464.962 69.6047 467.345C69.6047 469.728 69.2134 471.549 68.4308 472.81C67.6622 474.071 66.5302 474.701 65.0349 474.701C63.5536 474.701 62.4216 474.071 61.639 472.81C60.8564 471.549 60.4651 469.728 60.4651 467.345C60.4651 464.975 60.8564 463.16 61.639 461.9C62.4216 460.639 63.5536 460.008 65.0349 460.008ZM61.9534 467.345C61.9534 469.035 62.1072 470.358 62.4146 471.314L67.0683 462.107C66.5791 461.456 65.9013 461.131 65.0349 461.131C64.0706 461.131 63.316 461.643 62.771 462.669C62.2259 463.68 61.9534 465.239 61.9534 467.345ZM65.0349 473.558C66.0131 473.558 66.7748 473.053 67.3198 472.041C67.8648 471.016 68.1373 469.451 68.1373 467.345C68.1373 465.557 67.9627 464.172 67.6133 463.188L62.9596 472.478C63.4627 473.198 64.1545 473.558 65.0349 473.558Z" fill="url(#paint8_linear_175_198)" fill-opacity="0.6"/>
<path d="M66.2926 497.143H69.3741V498.245H61.3874V497.143H64.9511V485.464L61.5551 487.48L60.9682 486.544L65.1607 483.967H66.2926V497.143Z" fill="url(#paint9_linear_175_198)" fill-opacity="0.6"/>
<path d="M65.0349 507.511C66.5302 507.511 67.6622 508.141 68.4308 509.402C69.2134 510.649 69.6047 512.464 69.6047 514.847C69.6047 517.23 69.2134 519.052 68.4308 520.312C67.6622 521.573 66.5302 522.204 65.0349 522.204C63.5536 522.204 62.4216 521.573 61.639 520.312C60.8564 519.052 60.4651 517.23 60.4651 514.847C60.4651 512.478 60.8564 510.663 61.639 509.402C62.4216 508.141 63.5536 507.511 65.0349 507.511ZM61.9534 514.847C61.9534 516.537 62.1072 517.86 62.4146 518.816L67.0683 509.61C66.5791 508.958 65.9013 508.633 65.0349 508.633C64.0706 508.633 63.316 509.145 62.771 510.171C62.2259 511.182 61.9534 512.741 61.9534 514.847ZM65.0349 521.061C66.0131 521.061 66.7748 520.555 67.3198 519.543C67.8648 518.518 68.1373 516.953 68.1373 514.847C68.1373 513.059 67.9627 511.674 67.6133 510.69L62.9596 519.98C63.4627 520.7 64.1545 521.061 65.0349 521.061Z" fill="url(#paint10_linear_175_198)" fill-opacity="0.6"/>
<path d="M66.2926 544.645H69.3741V545.747H61.3874V544.645H64.9511V532.966L61.5551 534.982L60.9682 534.046L65.1607 531.469H66.2926V544.645Z" fill="url(#paint11_linear_175_198)" fill-opacity="0.6"/>
<path d="M66.2926 568.396H69.3741V569.498H61.3874V568.396H64.9511V556.717L61.5551 558.733L60.9682 557.798L65.1607 555.221H66.2926V568.396Z" fill="url(#paint12_linear_175_198)" fill-opacity="0.6"/>
<path d="M103.965 317.502C105.46 317.502 106.592 318.133 107.361 319.393C108.144 320.64 108.535 322.455 108.535 324.838C108.535 327.221 108.144 329.043 107.361 330.304C106.592 331.565 105.46 332.195 103.965 332.195C102.484 332.195 101.352 331.565 100.569 330.304C99.7866 329.043 99.3953 327.221 99.3953 324.838C99.3953 322.469 99.7866 320.654 100.569 319.393C101.352 318.133 102.484 317.502 103.965 317.502ZM100.884 324.838C100.884 326.529 101.037 327.852 101.345 328.808L105.998 319.601C105.509 318.95 104.832 318.624 103.965 318.624C103.001 318.624 102.246 319.137 101.701 320.162C101.156 321.174 100.884 322.732 100.884 324.838ZM103.965 331.052C104.943 331.052 105.705 330.546 106.25 329.535C106.795 328.51 107.068 326.944 107.068 324.838C107.068 323.051 106.893 321.665 106.543 320.682L101.89 329.971C102.393 330.692 103.085 331.052 103.965 331.052Z" fill="url(#paint13_linear_175_198)" fill-opacity="0.6"/>
<path d="M105.223 354.637H108.304V355.738H100.318V354.637H103.881V342.957L100.485 344.973L99.8984 344.038L104.091 341.461H105.223V354.637Z" fill="url(#paint14_linear_175_198)" fill-opacity="0.6"/>
<path d="M103.965 365.004C105.46 365.004 106.592 365.635 107.361 366.895C108.144 368.142 108.535 369.957 108.535 372.34C108.535 374.723 108.144 376.545 107.361 377.806C106.592 379.067 105.46 379.697 103.965 379.697C102.484 379.697 101.352 379.067 100.569 377.806C99.7866 376.545 99.3953 374.723 99.3953 372.34C99.3953 369.971 99.7866 368.156 100.569 366.895C101.352 365.635 102.484 365.004 103.965 365.004ZM100.884 372.34C100.884 374.031 101.037 375.354 101.345 376.31L105.998 367.103C105.509 366.452 104.832 366.126 103.965 366.126C103.001 366.126 102.246 366.639 101.701 367.664C101.156 368.676 100.884 370.234 100.884 372.34ZM103.965 378.554C104.943 378.554 105.705 378.049 106.25 377.037C106.795 376.012 107.068 374.446 107.068 372.34C107.068 370.553 106.893 369.168 106.543 368.184L101.89 377.474C102.393 378.194 103.085 378.554 103.965 378.554Z" fill="url(#paint15_linear_175_198)" fill-opacity="0.6"/>
<path d="M103.965 388.755C105.46 388.755 106.592 389.386 107.361 390.646C108.144 391.893 108.535 393.708 108.535 396.091C108.535 398.474 108.144 400.296 107.361 401.557C106.592 402.818 105.46 403.448 103.965 403.448C102.484 403.448 101.352 402.818 100.569 401.557C99.7866 400.296 99.3953 398.474 99.3953 396.091C99.3953 393.722 99.7866 391.907 100.569 390.646C101.352 389.386 102.484 388.755 103.965 388.755ZM100.884 396.091C100.884 397.782 101.037 399.105 101.345 400.061L105.998 390.854C105.509 390.203 104.832 389.878 103.965 389.878C103.001 389.878 102.246 390.39 101.701 391.415C101.156 392.427 100.884 393.985 100.884 396.091ZM103.965 402.305C104.943 402.305 105.705 401.8 106.25 400.788C106.795 399.763 107.068 398.197 107.068 396.091C107.068 394.304 106.893 392.919 106.543 391.935L101.89 401.225C102.393 401.945 103.085 402.305 103.965 402.305Z" fill="url(#paint16_linear_175_198)" fill-opacity="0.6"/>
<path d="M105.223 425.89H108.304V426.992H100.318V425.89H103.881V414.21L100.485 416.226L99.8984 415.291L104.091 412.714H105.223V425.89Z" fill="url(#paint17_linear_175_198)" fill-opacity="0.6"/>
<path d="M103.965 436.257C105.46 436.257 106.592 436.888 107.361 438.149C108.144 439.396 108.535 441.211 108.535 443.594C108.535 445.977 108.144 447.798 107.361 449.059C106.592 450.32 105.46 450.95 103.965 450.95C102.484 450.95 101.352 450.32 100.569 449.059C99.7866 447.798 99.3953 445.977 99.3953 443.594C99.3953 441.224 99.7866 439.409 100.569 438.149C101.352 436.888 102.484 436.257 103.965 436.257ZM100.884 443.594C100.884 445.284 101.037 446.607 101.345 447.563L105.998 438.356C105.509 437.705 104.832 437.38 103.965 437.38C103.001 437.38 102.246 437.892 101.701 438.918C101.156 439.929 100.884 441.488 100.884 443.594ZM103.965 449.807C104.943 449.807 105.705 449.302 106.25 448.29C106.795 447.265 107.068 445.699 107.068 443.594C107.068 441.806 106.893 440.421 106.543 439.437L101.89 448.727C102.393 449.447 103.085 449.807 103.965 449.807Z" fill="url(#paint18_linear_175_198)" fill-opacity="0.6"/>
<path d="M105.223 473.392H108.304V474.494H100.318V473.392H103.881V461.713L100.485 463.728L99.8984 462.793L104.091 460.216H105.223V473.392Z" fill="url(#paint19_linear_175_198)" fill-opacity="0.6"/>
<path d="M103.965 483.76C105.46 483.76 106.592 484.39 107.361 485.651C108.144 486.898 108.535 488.713 108.535 491.096C108.535 493.479 108.144 495.301 107.361 496.561C106.592 497.822 105.46 498.453 103.965 498.453C102.484 498.453 101.352 497.822 100.569 496.561C99.7866 495.301 99.3953 493.479 99.3953 491.096C99.3953 488.726 99.7866 486.911 100.569 485.651C101.352 484.39 102.484 483.76 103.965 483.76ZM100.884 491.096C100.884 492.786 101.037 494.109 101.345 495.065L105.998 485.859C105.509 485.207 104.832 484.882 103.965 484.882C103.001 484.882 102.246 485.394 101.701 486.42C101.156 487.431 100.884 488.99 100.884 491.096ZM103.965 497.31C104.943 497.31 105.705 496.804 106.25 495.792C106.795 494.767 107.068 493.202 107.068 491.096C107.068 489.308 106.893 487.923 106.543 486.939L101.89 496.229C102.393 496.949 103.085 497.31 103.965 497.31Z" fill="url(#paint20_linear_175_198)" fill-opacity="0.6"/>
<path d="M103.965 507.511C105.46 507.511 106.592 508.141 107.361 509.402C108.144 510.649 108.535 512.464 108.535 514.847C108.535 517.23 108.144 519.052 107.361 520.312C106.592 521.573 105.46 522.204 103.965 522.204C102.484 522.204 101.352 521.573 100.569 520.312C99.7866 519.052 99.3953 517.23 99.3953 514.847C99.3953 512.478 99.7866 510.663 100.569 509.402C101.352 508.141 102.484 507.511 103.965 507.511ZM100.884 514.847C100.884 516.537 101.037 517.86 101.345 518.816L105.998 509.61C105.509 508.958 104.832 508.633 103.965 508.633C103.001 508.633 102.246 509.145 101.701 510.171C101.156 511.182 100.884 512.741 100.884 514.847ZM103.965 521.061C104.943 521.061 105.705 520.555 106.25 519.543C106.795 518.518 107.068 516.953 107.068 514.847C107.068 513.059 106.893 511.674 106.543 510.69L101.89 519.98C102.393 520.7 103.085 521.061 103.965 521.061Z" fill="url(#paint21_linear_175_198)" fill-opacity="0.6"/>
<path d="M105.223 544.645H108.304V545.747H100.318V544.645H103.881V532.966L100.485 534.982L99.8984 534.046L104.091 531.469H105.223V544.645Z" fill="url(#paint22_linear_175_198)" fill-opacity="0.6"/>
<path d="M103.965 555.013C105.46 555.013 106.592 555.643 107.361 556.904C108.144 558.151 108.535 559.966 108.535 562.349C108.535 564.732 108.144 566.554 107.361 567.815C106.592 569.075 105.46 569.706 103.965 569.706C102.484 569.706 101.352 569.075 100.569 567.815C99.7866 566.554 99.3953 564.732 99.3953 562.349C99.3953 559.98 99.7866 558.165 100.569 556.904C101.352 555.643 102.484 555.013 103.965 555.013ZM100.884 562.349C100.884 564.039 101.037 565.362 101.345 566.318L105.998 557.112C105.509 556.461 104.832 556.135 103.965 556.135C103.001 556.135 102.246 556.648 101.701 557.673C101.156 558.684 100.884 560.243 100.884 562.349ZM103.965 568.563C104.943 568.563 105.705 568.057 106.25 567.046C106.795 566.02 107.068 564.455 107.068 562.349C107.068 560.562 106.893 559.176 106.543 558.192L101.89 567.482C102.393 568.202 103.085 568.563 103.965 568.563Z" fill="url(#paint23_linear_175_198)" fill-opacity="0.6"/>
<path d="M105.223 592.148H108.304V593.249H100.318V592.148H103.881V580.468L100.485 582.484L99.8984 581.549L104.091 578.972H105.223V592.148Z" fill="url(#paint24_linear_175_198)" fill-opacity="0.6"/>
<path d="M105.223 615.899H108.304V617H100.318V615.899H103.881V604.219L100.485 606.235L99.8984 605.3L104.091 602.723H105.223V615.899Z" fill="url(#paint25_linear_175_198)" fill-opacity="0.6"/>
<path d="M45.5698 341.253C47.0651 341.253 48.1971 341.884 48.9657 343.144C49.7483 344.391 50.1396 346.206 50.1396 348.589C50.1396 350.972 49.7483 352.794 48.9657 354.055C48.1971 355.316 47.0651 355.946 45.5698 355.946C44.0885 355.946 42.9565 355.316 42.1739 354.055C41.3913 352.794 41 350.972 41 348.589C41 346.22 41.3913 344.405 42.1739 343.144C42.9565 341.884 44.0885 341.253 45.5698 341.253ZM42.4883 348.589C42.4883 350.28 42.6421 351.603 42.9495 352.559L47.6032 343.352C47.114 342.701 46.4363 342.375 45.5698 342.375C44.6055 342.375 43.8509 342.888 43.3059 343.913C42.7608 344.925 42.4883 346.483 42.4883 348.589ZM45.5698 354.803C46.5481 354.803 47.3097 354.297 47.8547 353.286C48.3997 352.261 48.6722 350.695 48.6722 348.589C48.6722 346.802 48.4976 345.417 48.1482 344.433L43.4945 353.722C43.9976 354.443 44.6894 354.803 45.5698 354.803Z" fill="url(#paint26_linear_175_198)" fill-opacity="0.6"/>
<path d="M45.5698 365.004C47.0651 365.004 48.1971 365.635 48.9657 366.895C49.7483 368.142 50.1396 369.957 50.1396 372.34C50.1396 374.723 49.7483 376.545 48.9657 377.806C48.1971 379.067 47.0651 379.697 45.5698 379.697C44.0885 379.697 42.9565 379.067 42.1739 377.806C41.3913 376.545 41 374.723 41 372.34C41 369.971 41.3913 368.156 42.1739 366.895C42.9565 365.635 44.0885 365.004 45.5698 365.004ZM42.4883 372.34C42.4883 374.031 42.6421 375.354 42.9495 376.31L47.6032 367.103C47.114 366.452 46.4363 366.126 45.5698 366.126C44.6055 366.126 43.8509 366.639 43.3059 367.664C42.7608 368.676 42.4883 370.234 42.4883 372.34ZM45.5698 378.554C46.5481 378.554 47.3097 378.049 47.8547 377.037C48.3997 376.012 48.6722 374.446 48.6722 372.34C48.6722 370.553 48.4976 369.168 48.1482 368.184L43.4945 377.474C43.9976 378.194 44.6894 378.554 45.5698 378.554Z" fill="url(#paint27_linear_175_198)" fill-opacity="0.6"/>
<path d="M46.8276 402.139H49.909V403.24H41.9223V402.139H45.486V390.459L42.09 392.475L41.5031 391.54L45.6956 388.963H46.8276V402.139Z" fill="url(#paint28_linear_175_198)" fill-opacity="0.6"/>
<path d="M45.5698 412.506C47.0651 412.506 48.1971 413.137 48.9657 414.398C49.7483 415.644 50.1396 417.459 50.1396 419.842C50.1396 422.225 49.7483 424.047 48.9657 425.308C48.1971 426.569 47.0651 427.199 45.5698 427.199C44.0885 427.199 42.9565 426.569 42.1739 425.308C41.3913 424.047 41 422.225 41 419.842C41 417.473 41.3913 415.658 42.1739 414.398C42.9565 413.137 44.0885 412.506 45.5698 412.506ZM42.4883 419.842C42.4883 421.533 42.6421 422.856 42.9495 423.812L47.6032 414.605C47.114 413.954 46.4363 413.629 45.5698 413.629C44.6055 413.629 43.8509 414.141 43.3059 415.166C42.7608 416.178 42.4883 417.737 42.4883 419.842ZM45.5698 426.056C46.5481 426.056 47.3097 425.551 47.8547 424.539C48.3997 423.514 48.6722 421.948 48.6722 419.842C48.6722 418.055 48.4976 416.67 48.1482 415.686L43.4945 424.976C43.9976 425.696 44.6894 426.056 45.5698 426.056Z" fill="url(#paint29_linear_175_198)" fill-opacity="0.6"/>
<path d="M46.8276 449.641H49.909V450.743H41.9223V449.641H45.486V437.962L42.09 439.977L41.5031 439.042L45.6956 436.465H46.8276V449.641Z" fill="url(#paint30_linear_175_198)" fill-opacity="0.6"/>
<path d="M46.8276 473.392H49.909V474.494H41.9223V473.392H45.486V461.713L42.09 463.728L41.5031 462.793L45.6956 460.216H46.8276V473.392Z" fill="url(#paint31_linear_175_198)" fill-opacity="0.6"/>
<path d="M85.7577 307.135H88.8392V308.236H80.8525V307.135H84.4162V295.455L81.0202 297.471L80.4333 296.536L84.6258 293.959H85.7577V307.135Z" fill="url(#paint32_linear_175_198)" fill-opacity="0.6"/>
<path d="M84.5 317.502C85.9953 317.502 87.1273 318.133 87.8959 319.393C88.6785 320.64 89.0698 322.455 89.0698 324.838C89.0698 327.221 88.6785 329.043 87.8959 330.304C87.1273 331.565 85.9953 332.195 84.5 332.195C83.0187 332.195 81.8867 331.565 81.1041 330.304C80.3215 329.043 79.9302 327.221 79.9302 324.838C79.9302 322.469 80.3215 320.654 81.1041 319.393C81.8867 318.133 83.0187 317.502 84.5 317.502ZM81.4185 324.838C81.4185 326.529 81.5723 327.852 81.8797 328.808L86.5334 319.601C86.0442 318.95 85.3664 318.624 84.5 318.624C83.5357 318.624 82.7811 319.137 82.2361 320.162C81.691 321.174 81.4185 322.732 81.4185 324.838ZM84.5 331.052C85.4782 331.052 86.2399 330.546 86.7849 329.535C87.3299 328.51 87.6024 326.944 87.6024 324.838C87.6024 323.051 87.4277 321.665 87.0784 320.682L82.4247 329.971C82.9278 330.692 83.6196 331.052 84.5 331.052Z" fill="url(#paint33_linear_175_198)" fill-opacity="0.6"/>
<path d="M85.7577 354.637H88.8392V355.738H80.8525V354.637H84.4162V342.957L81.0202 344.973L80.4333 344.038L84.6258 341.461H85.7577V354.637Z" fill="url(#paint34_linear_175_198)" fill-opacity="0.6"/>
<path d="M85.7577 378.388H88.8392V379.489H80.8525V378.388H84.4162V366.708L81.0202 368.724L80.4333 367.789L84.6258 365.212H85.7577V378.388Z" fill="url(#paint35_linear_175_198)" fill-opacity="0.6"/>
<path d="M84.5 388.755C85.9953 388.755 87.1273 389.386 87.8959 390.646C88.6785 391.893 89.0698 393.708 89.0698 396.091C89.0698 398.474 88.6785 400.296 87.8959 401.557C87.1273 402.818 85.9953 403.448 84.5 403.448C83.0187 403.448 81.8867 402.818 81.1041 401.557C80.3215 400.296 79.9302 398.474 79.9302 396.091C79.9302 393.722 80.3215 391.907 81.1041 390.646C81.8867 389.386 83.0187 388.755 84.5 388.755ZM81.4185 396.091C81.4185 397.782 81.5723 399.105 81.8797 400.061L86.5334 390.854C86.0442 390.203 85.3664 389.878 84.5 389.878C83.5357 389.878 82.7811 390.39 82.2361 391.415C81.691 392.427 81.4185 393.985 81.4185 396.091ZM84.5 402.305C85.4782 402.305 86.2399 401.8 86.7849 400.788C87.3299 399.763 87.6024 398.197 87.6024 396.091C87.6024 394.304 87.4277 392.919 87.0784 391.935L82.4247 401.225C82.9278 401.945 83.6196 402.305 84.5 402.305Z" fill="url(#paint36_linear_175_198)" fill-opacity="0.6"/>
<path d="M85.7577 425.89H88.8392V426.992H80.8525V425.89H84.4162V414.21L81.0202 416.226L80.4333 415.291L84.6258 412.714H85.7577V425.89Z" fill="url(#paint37_linear_175_198)" fill-opacity="0.6"/>
<path d="M85.7577 449.641H88.8392V450.743H80.8525V449.641H84.4162V437.962L81.0202 439.977L80.4333 439.042L84.6258 436.465H85.7577V449.641Z" fill="url(#paint38_linear_175_198)" fill-opacity="0.6"/>
<path d="M84.5 460.008C85.9953 460.008 87.1273 460.639 87.8959 461.9C88.6785 463.147 89.0698 464.962 89.0698 467.345C89.0698 469.728 88.6785 471.549 87.8959 472.81C87.1273 474.071 85.9953 474.701 84.5 474.701C83.0187 474.701 81.8867 474.071 81.1041 472.81C80.3215 471.549 79.9302 469.728 79.9302 467.345C79.9302 464.975 80.3215 463.16 81.1041 461.9C81.8867 460.639 83.0187 460.008 84.5 460.008ZM81.4185 467.345C81.4185 469.035 81.5723 470.358 81.8797 471.314L86.5334 462.107C86.0442 461.456 85.3664 461.131 84.5 461.131C83.5357 461.131 82.7811 461.643 82.2361 462.669C81.691 463.68 81.4185 465.239 81.4185 467.345ZM84.5 473.558C85.4782 473.558 86.2399 473.053 86.7849 472.041C87.3299 471.016 87.6024 469.451 87.6024 467.345C87.6024 465.557 87.4277 464.172 87.0784 463.188L82.4247 472.478C82.9278 473.198 83.6196 473.558 84.5 473.558Z" fill="url(#paint39_linear_175_198)" fill-opacity="0.6"/>
<path d="M85.7577 497.143H88.8392V498.245H80.8525V497.143H84.4162V485.464L81.0202 487.48L80.4333 486.544L84.6258 483.967H85.7577V497.143Z" fill="url(#paint40_linear_175_198)" fill-opacity="0.6"/>
<path d="M84.5 507.511C85.9953 507.511 87.1273 508.141 87.8959 509.402C88.6785 510.649 89.0698 512.464 89.0698 514.847C89.0698 517.23 88.6785 519.052 87.8959 520.312C87.1273 521.573 85.9953 522.204 84.5 522.204C83.0187 522.204 81.8867 521.573 81.1041 520.312C80.3215 519.052 79.9302 517.23 79.9302 514.847C79.9302 512.478 80.3215 510.663 81.1041 509.402C81.8867 508.141 83.0187 507.511 84.5 507.511ZM81.4185 514.847C81.4185 516.537 81.5723 517.86 81.8797 518.816L86.5334 509.61C86.0442 508.958 85.3664 508.633 84.5 508.633C83.5357 508.633 82.7811 509.145 82.2361 510.171C81.691 511.182 81.4185 512.741 81.4185 514.847ZM84.5 521.061C85.4782 521.061 86.2399 520.555 86.7849 519.543C87.3299 518.518 87.6024 516.953 87.6024 514.847C87.6024 513.059 87.4277 511.674 87.0784 510.69L82.4247 519.98C82.9278 520.7 83.6196 521.061 84.5 521.061Z" fill="url(#paint41_linear_175_198)" fill-opacity="0.6"/>
<path d="M123.43 293.751C124.926 293.751 126.057 294.381 126.826 295.642C127.609 296.889 128 298.704 128 301.087C128 303.47 127.609 305.292 126.826 306.553C126.057 307.814 124.926 308.444 123.43 308.444C121.949 308.444 120.817 307.814 120.034 306.553C119.252 305.292 118.86 303.47 118.86 301.087C118.86 298.718 119.252 296.903 120.034 295.642C120.817 294.381 121.949 293.751 123.43 293.751ZM120.349 301.087C120.349 302.777 120.502 304.101 120.81 305.057L125.464 295.85C124.974 295.199 124.297 294.873 123.43 294.873C122.466 294.873 121.711 295.386 121.166 296.411C120.621 297.423 120.349 298.981 120.349 301.087ZM123.43 307.301C124.408 307.301 125.17 306.795 125.715 305.784C126.26 304.759 126.533 303.193 126.533 301.087C126.533 299.3 126.358 297.914 126.009 296.931L121.355 306.22C121.858 306.941 122.55 307.301 123.43 307.301Z" fill="url(#paint42_linear_175_198)" fill-opacity="0.6"/>
<path d="M124.688 330.886H127.769V331.987H119.783V330.886H123.346V319.206L119.95 321.222L119.363 320.287L123.556 317.71H124.688V330.886Z" fill="url(#paint43_linear_175_198)" fill-opacity="0.6"/>
<path d="M124.688 354.637H127.769V355.738H119.783V354.637H123.346V342.957L119.95 344.973L119.363 344.038L123.556 341.461H124.688V354.637Z" fill="url(#paint44_linear_175_198)" fill-opacity="0.6"/>
<path d="M123.43 365.004C124.926 365.004 126.057 365.635 126.826 366.895C127.609 368.142 128 369.957 128 372.34C128 374.723 127.609 376.545 126.826 377.806C126.057 379.067 124.926 379.697 123.43 379.697C121.949 379.697 120.817 379.067 120.034 377.806C119.252 376.545 118.86 374.723 118.86 372.34C118.86 369.971 119.252 368.156 120.034 366.895C120.817 365.635 121.949 365.004 123.43 365.004ZM120.349 372.34C120.349 374.031 120.502 375.354 120.81 376.31L125.464 367.103C124.974 366.452 124.297 366.126 123.43 366.126C122.466 366.126 121.711 366.639 121.166 367.664C120.621 368.676 120.349 370.234 120.349 372.34ZM123.43 378.554C124.408 378.554 125.17 378.049 125.715 377.037C126.26 376.012 126.533 374.446 126.533 372.34C126.533 370.553 126.358 369.168 126.009 368.184L121.355 377.474C121.858 378.194 122.55 378.554 123.43 378.554Z" fill="url(#paint45_linear_175_198)" fill-opacity="0.6"/>
<path d="M123.43 388.755C124.926 388.755 126.057 389.386 126.826 390.646C127.609 391.893 128 393.708 128 396.091C128 398.474 127.609 400.296 126.826 401.557C126.057 402.818 124.926 403.448 123.43 403.448C121.949 403.448 120.817 402.818 120.034 401.557C119.252 400.296 118.86 398.474 118.86 396.091C118.86 393.722 119.252 391.907 120.034 390.646C120.817 389.386 121.949 388.755 123.43 388.755ZM120.349 396.091C120.349 397.782 120.502 399.105 120.81 400.061L125.464 390.854C124.974 390.203 124.297 389.878 123.43 389.878C122.466 389.878 121.711 390.39 121.166 391.415C120.621 392.427 120.349 393.985 120.349 396.091ZM123.43 402.305C124.408 402.305 125.17 401.8 125.715 400.788C126.26 399.763 126.533 398.197 126.533 396.091C126.533 394.304 126.358 392.919 126.009 391.935L121.355 401.225C121.858 401.945 122.55 402.305 123.43 402.305Z" fill="url(#paint46_linear_175_198)" fill-opacity="0.6"/>
<g opacity="0.6">
<path d="M951.93 -30C953.356 -30 954.436 -29.395 955.17 -28.1851C955.916 -26.9885 956.29 -25.2468 956.29 -22.9599C956.29 -20.673 955.916 -18.9246 955.17 -17.7147C954.436 -16.5048 953.356 -15.8998 951.93 -15.8998C950.517 -15.8998 949.437 -16.5048 948.69 -17.7147C947.943 -18.9246 947.57 -20.673 947.57 -22.9599C947.57 -25.2335 947.943 -26.9752 948.69 -28.1851C949.437 -29.395 950.517 -30 951.93 -30ZM948.99 -22.9599C948.99 -21.3378 949.137 -20.068 949.43 -19.1506L953.87 -27.9857C953.403 -28.6106 952.756 -28.923 951.93 -28.923C951.01 -28.923 950.29 -28.4311 949.77 -27.4472C949.25 -26.4766 948.99 -24.9808 948.99 -22.9599ZM951.93 -16.9967C952.863 -16.9967 953.59 -17.482 954.11 -18.4526C954.63 -19.4365 954.89 -20.9389 954.89 -22.9599C954.89 -24.675 954.723 -26.0046 954.39 -26.9486L949.95 -18.0338C950.43 -17.3424 951.09 -16.9967 951.93 -16.9967Z" fill="url(#paint47_linear_175_198)"/>
<path d="M953.13 5.63655H956.07V6.69356H948.45V5.63655H951.85V-5.57181L948.61 -3.63727L948.05 -4.53474L952.05 -7.00776H953.13V5.63655Z" fill="url(#paint48_linear_175_198)"/>
<path d="M951.93 15.5856C953.356 15.5856 954.436 16.1906 955.17 17.4005C955.916 18.5971 956.29 20.3389 956.29 22.6257C956.29 24.9126 955.916 26.661 955.17 27.8709C954.436 29.0808 953.356 29.6858 951.93 29.6858C950.517 29.6858 949.437 29.0808 948.69 27.8709C947.943 26.661 947.57 24.9126 947.57 22.6257C947.57 20.3522 947.943 18.6104 948.69 17.4005C949.437 16.1906 950.517 15.5856 951.93 15.5856ZM948.99 22.6257C948.99 24.2478 949.137 25.5176 949.43 26.435L953.87 17.5999C953.403 16.975 952.756 16.6626 951.93 16.6626C951.01 16.6626 950.29 17.1545 949.77 18.1384C949.25 19.109 948.99 20.6048 948.99 22.6257ZM951.93 28.5889C952.863 28.5889 953.59 28.1036 954.11 27.133C954.63 26.1491 954.89 24.6467 954.89 22.6257C954.89 20.9106 954.723 19.581 954.39 18.637L949.95 27.5518C950.43 28.2432 951.09 28.5889 951.93 28.5889Z" fill="url(#paint49_linear_175_198)"/>
<path d="M953.13 51.2221H956.07V52.2792H948.45V51.2221H951.85V40.0138L948.61 41.9483L948.05 41.0509L952.05 38.5778H953.13V51.2221Z" fill="url(#paint50_linear_175_198)"/>
<path d="M953.13 74.015H956.07V75.072H948.45V74.015H951.85V62.8066L948.61 64.7411L948.05 63.8437L952.05 61.3706H953.13V74.015Z" fill="url(#paint51_linear_175_198)"/>
<path d="M951.93 83.964C953.356 83.964 954.436 84.569 955.17 85.7789C955.916 86.9755 956.29 88.7173 956.29 91.0041C956.29 93.291 955.916 95.0394 955.17 96.2493C954.436 97.4593 953.356 98.0642 951.93 98.0642C950.517 98.0642 949.437 97.4593 948.69 96.2493C947.943 95.0394 947.57 93.291 947.57 91.0041C947.57 88.7306 947.943 86.9888 948.69 85.7789C949.437 84.569 950.517 83.964 951.93 83.964ZM948.99 91.0041C948.99 92.6262 949.137 93.896 949.43 94.8134L953.87 85.9783C953.403 85.3534 952.756 85.041 951.93 85.041C951.01 85.041 950.29 85.5329 949.77 86.5168C949.25 87.4874 948.99 88.9832 948.99 91.0041ZM951.93 96.9673C952.863 96.9673 953.59 96.482 954.11 95.5114C954.63 94.5275 954.89 93.0251 954.89 91.0041C954.89 89.289 954.723 87.9594 954.39 87.0154L949.95 95.9302C950.43 96.6216 951.09 96.9673 951.93 96.9673Z" fill="url(#paint52_linear_175_198)"/>
<path d="M953.13 119.601H956.07V120.658H948.45V119.601H951.85V108.392L948.61 110.327L948.05 109.429L952.05 106.956H953.13V119.601Z" fill="url(#paint53_linear_175_198)"/>
<path d="M951.93 129.55C953.356 129.55 954.436 130.155 955.17 131.365C955.916 132.561 956.29 134.303 956.29 136.59C956.29 138.877 955.916 140.625 955.17 141.835C954.436 143.045 953.356 143.65 951.93 143.65C950.517 143.65 949.437 143.045 948.69 141.835C947.943 140.625 947.57 138.877 947.57 136.59C947.57 134.316 947.943 132.574 948.69 131.365C949.437 130.155 950.517 129.55 951.93 129.55ZM948.99 136.59C948.99 138.212 949.137 139.482 949.43 140.399L953.87 131.564C953.403 130.939 952.756 130.627 951.93 130.627C951.01 130.627 950.29 131.119 949.77 132.102C949.25 133.073 948.99 134.569 948.99 136.59ZM951.93 142.553C952.863 142.553 953.59 142.068 954.11 141.097C954.63 140.113 954.89 138.611 954.89 136.59C954.89 134.875 954.723 133.545 954.39 132.601L949.95 141.516C950.43 142.207 951.09 142.553 951.93 142.553Z" fill="url(#paint54_linear_175_198)"/>
<path d="M951.93 152.342C953.356 152.342 954.436 152.947 955.17 154.157C955.916 155.354 956.29 157.096 956.29 159.383C956.29 161.669 955.916 163.418 955.17 164.628C954.436 165.838 953.356 166.443 951.93 166.443C950.517 166.443 949.437 165.838 948.69 164.628C947.943 163.418 947.57 161.669 947.57 159.383C947.57 157.109 947.943 155.367 948.69 154.157C949.437 152.947 950.517 152.342 951.93 152.342ZM948.99 159.383C948.99 161.005 949.137 162.274 949.43 163.192L953.87 154.357C953.403 153.732 952.756 153.419 951.93 153.419C951.01 153.419 950.29 153.911 949.77 154.895C949.25 155.866 948.99 157.362 948.99 159.383ZM951.93 165.346C952.863 165.346 953.59 164.86 954.11 163.89C954.63 162.906 954.89 161.404 954.89 159.383C954.89 157.667 954.723 156.338 954.39 155.394L949.95 164.309C950.43 165 951.09 165.346 951.93 165.346Z" fill="url(#paint55_linear_175_198)"/>
<path d="M953.13 187.979H956.07V189.036H948.45V187.979H951.85V176.771L948.61 178.705L948.05 177.808L952.05 175.335H953.13V187.979Z" fill="url(#paint56_linear_175_198)"/>
<path d="M951.93 197.928C953.356 197.928 954.436 198.533 955.17 199.743C955.916 200.94 956.29 202.681 956.29 204.968C956.29 207.255 955.916 209.003 955.17 210.213C954.436 211.423 953.356 212.028 951.93 212.028C950.517 212.028 949.437 211.423 948.69 210.213C947.943 209.003 947.57 207.255 947.57 204.968C947.57 202.695 947.943 200.953 948.69 199.743C949.437 198.533 950.517 197.928 951.93 197.928ZM948.99 204.968C948.99 206.59 949.137 207.86 949.43 208.777L953.87 199.942C953.403 199.317 952.756 199.005 951.93 199.005C951.01 199.005 950.29 199.497 949.77 200.481C949.25 201.451 948.99 202.947 948.99 204.968ZM951.93 210.931C952.863 210.931 953.59 210.446 954.11 209.475C954.63 208.492 954.89 206.989 954.89 204.968C954.89 203.253 954.723 201.923 954.39 200.979L949.95 209.894C950.43 210.586 951.09 210.931 951.93 210.931Z" fill="url(#paint57_linear_175_198)"/>
<path d="M953.13 233.565H956.07V234.622H948.45V233.565H951.85V222.356L948.61 224.291L948.05 223.393L952.05 220.92H953.13V233.565Z" fill="url(#paint58_linear_175_198)"/>
<path d="M953.13 256.357H956.07V257.414H948.45V256.357H951.85V245.149L948.61 247.084L948.05 246.186L952.05 243.713H953.13V256.357Z" fill="url(#paint59_linear_175_198)"/>
<path d="M989.07 15.5856C990.497 15.5856 991.577 16.1906 992.31 17.4005C993.057 18.5971 993.43 20.3389 993.43 22.6257C993.43 24.9126 993.057 26.661 992.31 27.8709C991.577 29.0808 990.497 29.6858 989.07 29.6858C987.657 29.6858 986.577 29.0808 985.83 27.8709C985.084 26.661 984.71 24.9126 984.71 22.6257C984.71 20.3522 985.084 18.6104 985.83 17.4005C986.577 16.1906 987.657 15.5856 989.07 15.5856ZM986.13 22.6257C986.13 24.2478 986.277 25.5176 986.57 26.435L991.01 17.5999C990.543 16.975 989.897 16.6626 989.07 16.6626C988.15 16.6626 987.43 17.1545 986.91 18.1384C986.39 19.109 986.13 20.6048 986.13 22.6257ZM989.07 28.5889C990.003 28.5889 990.73 28.1036 991.25 27.133C991.77 26.1491 992.03 24.6467 992.03 22.6257C992.03 20.9106 991.863 19.581 991.53 18.637L987.09 27.5518C987.57 28.2432 988.23 28.5889 989.07 28.5889Z" fill="url(#paint60_linear_175_198)"/>
<path d="M990.27 51.2221H993.21V52.2792H985.59V51.2221H988.99V40.0138L985.75 41.9483L985.19 41.0509L989.19 38.5778H990.27V51.2221Z" fill="url(#paint61_linear_175_198)"/>
<path d="M989.07 61.1712C990.497 61.1712 991.577 61.7762 992.31 62.9861C993.057 64.1827 993.43 65.9245 993.43 68.2113C993.43 70.4982 993.057 72.2466 992.31 73.4565C991.577 74.6664 990.497 75.2714 989.07 75.2714C987.657 75.2714 986.577 74.6664 985.83 73.4565C985.084 72.2466 984.71 70.4982 984.71 68.2113C984.71 65.9378 985.084 64.196 985.83 62.9861C986.577 61.7762 987.657 61.1712 989.07 61.1712ZM986.13 68.2113C986.13 69.8334 986.277 71.1032 986.57 72.0206L991.01 63.1855C990.543 62.5606 989.897 62.2482 989.07 62.2482C988.15 62.2482 987.43 62.7401 986.91 63.724C986.39 64.6946 986.13 66.1904 986.13 68.2113ZM989.07 74.1745C990.003 74.1745 990.73 73.6892 991.25 72.7186C991.77 71.7347 992.03 70.2323 992.03 68.2113C992.03 66.4962 991.863 65.1666 991.53 64.2226L987.09 73.1374C987.57 73.8288 988.23 74.1745 989.07 74.1745Z" fill="url(#paint62_linear_175_198)"/>
<path d="M989.07 83.964C990.497 83.964 991.577 84.569 992.31 85.7789C993.057 86.9755 993.43 88.7173 993.43 91.0041C993.43 93.291 993.057 95.0394 992.31 96.2493C991.577 97.4593 990.497 98.0642 989.07 98.0642C987.657 98.0642 986.577 97.4593 985.83 96.2493C985.084 95.0394 984.71 93.291 984.71 91.0041C984.71 88.7306 985.084 86.9888 985.83 85.7789C986.577 84.569 987.657 83.964 989.07 83.964ZM986.13 91.0041C986.13 92.6262 986.277 93.896 986.57 94.8134L991.01 85.9783C990.543 85.3534 989.897 85.041 989.07 85.041C988.15 85.041 987.43 85.5329 986.91 86.5168C986.39 87.4874 986.13 88.9832 986.13 91.0041ZM989.07 96.9673C990.003 96.9673 990.73 96.482 991.25 95.5114C991.77 94.5275 992.03 93.0251 992.03 91.0041C992.03 89.289 991.863 87.9594 991.53 87.0154L987.09 95.9302C987.57 96.6216 988.23 96.9673 989.07 96.9673Z" fill="url(#paint63_linear_175_198)"/>
<path d="M990.27 119.601H993.21V120.658H985.59V119.601H988.99V108.392L985.75 110.327L985.19 109.429L989.19 106.956H990.27V119.601Z" fill="url(#paint64_linear_175_198)"/>
<path d="M989.07 129.55C990.497 129.55 991.577 130.155 992.31 131.365C993.057 132.561 993.43 134.303 993.43 136.59C993.43 138.877 993.057 140.625 992.31 141.835C991.577 143.045 990.497 143.65 989.07 143.65C987.657 143.65 986.577 143.045 985.83 141.835C985.084 140.625 984.71 138.877 984.71 136.59C984.71 134.316 985.084 132.574 985.83 131.365C986.577 130.155 987.657 129.55 989.07 129.55ZM986.13 136.59C986.13 138.212 986.277 139.482 986.57 140.399L991.01 131.564C990.543 130.939 989.897 130.627 989.07 130.627C988.15 130.627 987.43 131.119 986.91 132.102C986.39 133.073 986.13 134.569 986.13 136.59ZM989.07 142.553C990.003 142.553 990.73 142.068 991.25 141.097C991.77 140.113 992.03 138.611 992.03 136.59C992.03 134.875 991.863 133.545 991.53 132.601L987.09 141.516C987.57 142.207 988.23 142.553 989.07 142.553Z" fill="url(#paint65_linear_175_198)"/>
<path d="M990.27 165.186H993.21V166.243H985.59V165.186H988.99V153.978L985.75 155.912L985.19 155.015L989.19 152.542H990.27V165.186Z" fill="url(#paint66_linear_175_198)"/>
<path d="M989.07 175.135C990.497 175.135 991.577 175.74 992.31 176.95C993.057 178.147 993.43 179.888 993.43 182.175C993.43 184.462 993.057 186.211 992.31 187.421C991.577 188.63 990.497 189.235 989.07 189.235C987.657 189.235 986.577 188.63 985.83 187.421C985.084 186.211 984.71 184.462 984.71 182.175C984.71 179.902 985.084 178.16 985.83 176.95C986.577 175.74 987.657 175.135 989.07 175.135ZM986.13 182.175C986.13 183.797 986.277 185.067 986.57 185.985L991.01 177.15C990.543 176.525 989.897 176.212 989.07 176.212C988.15 176.212 987.43 176.704 986.91 177.688C986.39 178.659 986.13 180.154 986.13 182.175ZM989.07 188.139C990.003 188.139 990.73 187.653 991.25 186.683C991.77 185.699 992.03 184.196 992.03 182.175C992.03 180.46 991.863 179.131 991.53 178.187L987.09 187.101C987.57 187.793 988.23 188.139 989.07 188.139Z" fill="url(#paint67_linear_175_198)"/>
<path d="M989.07 197.928C990.497 197.928 991.577 198.533 992.31 199.743C993.057 200.94 993.43 202.681 993.43 204.968C993.43 207.255 993.057 209.003 992.31 210.213C991.577 211.423 990.497 212.028 989.07 212.028C987.657 212.028 986.577 211.423 985.83 210.213C985.084 209.003 984.71 207.255 984.71 204.968C984.71 202.695 985.084 200.953 985.83 199.743C986.577 198.533 987.657 197.928 989.07 197.928ZM986.13 204.968C986.13 206.59 986.277 207.86 986.57 208.777L991.01 199.942C990.543 199.317 989.897 199.005 989.07 199.005C988.15 199.005 987.43 199.497 986.91 200.481C986.39 201.451 986.13 202.947 986.13 204.968ZM989.07 210.931C990.003 210.931 990.73 210.446 991.25 209.475C991.77 208.492 992.03 206.989 992.03 204.968C992.03 203.253 991.863 201.923 991.53 200.979L987.09 209.894C987.57 210.586 988.23 210.931 989.07 210.931Z" fill="url(#paint68_linear_175_198)"/>
<path d="M990.27 233.565H993.21V234.622H985.59V233.565H988.99V222.356L985.75 224.291L985.19 223.393L989.19 220.92H990.27V233.565Z" fill="url(#paint69_linear_175_198)"/>
<path d="M989.07 243.514C990.497 243.514 991.577 244.119 992.31 245.329C993.057 246.525 993.43 248.267 993.43 250.554C993.43 252.841 993.057 254.589 992.31 255.799C991.577 257.009 990.497 257.614 989.07 257.614C987.657 257.614 986.577 257.009 985.83 255.799C985.084 254.589 984.71 252.841 984.71 250.554C984.71 248.28 985.084 246.538 985.83 245.329C986.577 244.119 987.657 243.514 989.07 243.514ZM986.13 250.554C986.13 252.176 986.277 253.446 986.57 254.363L991.01 245.528C990.543 244.903 989.897 244.591 989.07 244.591C988.15 244.591 987.43 245.083 986.91 246.066C986.39 247.037 986.13 248.533 986.13 250.554ZM989.07 256.517C990.003 256.517 990.73 256.032 991.25 255.061C991.77 254.077 992.03 252.575 992.03 250.554C992.03 248.839 991.863 247.509 991.53 246.565L987.09 255.48C987.57 256.171 988.23 256.517 989.07 256.517Z" fill="url(#paint70_linear_175_198)"/>
<path d="M990.27 279.15H993.21V280.207H985.59V279.15H988.99V267.942L985.75 269.876L985.19 268.979L989.19 266.506H990.27V279.15Z" fill="url(#paint71_linear_175_198)"/>
<path d="M990.27 301.943H993.21V303H985.59V301.943H988.99V290.735L985.75 292.669L985.19 291.772L989.19 289.299H990.27V301.943Z" fill="url(#paint72_linear_175_198)"/>
<path d="M933.36 38.3784C934.786 38.3784 935.866 38.9834 936.599 40.1933C937.346 41.3899 937.719 43.1317 937.719 45.4185C937.719 47.7054 937.346 49.4538 936.599 50.6637C935.866 51.8736 934.786 52.4786 933.36 52.4786C931.946 52.4786 930.867 51.8736 930.12 50.6637C929.373 49.4538 929 47.7054 929 45.4185C929 43.145 929.373 41.4032 930.12 40.1933C930.867 38.9834 931.946 38.3784 933.36 38.3784ZM930.42 45.4185C930.42 47.0406 930.567 48.3104 930.86 49.2278L935.3 40.3927C934.833 39.7678 934.186 39.4554 933.36 39.4554C932.44 39.4554 931.72 39.9473 931.2 40.9312C930.68 41.9018 930.42 43.3976 930.42 45.4185ZM933.36 51.3817C934.293 51.3817 935.02 50.8964 935.54 49.9258C936.06 48.9419 936.319 47.4395 936.319 45.4185C936.319 43.7034 936.153 42.3738 935.82 41.4298L931.38 50.3446C931.86 51.036 932.52 51.3817 933.36 51.3817Z" fill="url(#paint73_linear_175_198)"/>
<path d="M933.36 61.1712C934.786 61.1712 935.866 61.7762 936.599 62.9861C937.346 64.1827 937.719 65.9245 937.719 68.2113C937.719 70.4982 937.346 72.2466 936.599 73.4565C935.866 74.6664 934.786 75.2714 933.36 75.2714C931.946 75.2714 930.867 74.6664 930.12 73.4565C929.373 72.2466 929 70.4982 929 68.2113C929 65.9378 929.373 64.196 930.12 62.9861C930.867 61.7762 931.946 61.1712 933.36 61.1712ZM930.42 68.2113C930.42 69.8334 930.567 71.1032 930.86 72.0206L935.3 63.1855C934.833 62.5606 934.186 62.2482 933.36 62.2482C932.44 62.2482 931.72 62.7401 931.2 63.724C930.68 64.6946 930.42 66.1904 930.42 68.2113ZM933.36 74.1745C934.293 74.1745 935.02 73.6892 935.54 72.7186C936.06 71.7347 936.319 70.2323 936.319 68.2113C936.319 66.4962 936.153 65.1666 935.82 64.2226L931.38 73.1374C931.86 73.8288 932.52 74.1745 933.36 74.1745Z" fill="url(#paint74_linear_175_198)"/>
<path d="M934.56 96.8078H937.499V97.8648H929.88V96.8078H933.28V85.5994L930.04 87.5339L929.48 86.6365L933.48 84.1635H934.56V96.8078Z" fill="url(#paint75_linear_175_198)"/>
<path d="M933.36 106.757C934.786 106.757 935.866 107.362 936.599 108.572C937.346 109.768 937.719 111.51 937.719 113.797C937.719 116.084 937.346 117.832 936.599 119.042C935.866 120.252 934.786 120.857 933.36 120.857C931.946 120.857 930.867 120.252 930.12 119.042C929.373 117.832 929 116.084 929 113.797C929 111.523 929.373 109.782 930.12 108.572C930.867 107.362 931.946 106.757 933.36 106.757ZM930.42 113.797C930.42 115.419 930.567 116.689 930.86 117.606L935.3 108.771C934.833 108.146 934.186 107.834 933.36 107.834C932.44 107.834 931.72 108.326 931.2 109.31C930.68 110.28 930.42 111.776 930.42 113.797ZM933.36 119.76C934.293 119.76 935.02 119.275 935.54 118.304C936.06 117.32 936.319 115.818 936.319 113.797C936.319 112.082 936.153 110.752 935.82 109.808L931.38 118.723C931.86 119.414 932.52 119.76 933.36 119.76Z" fill="url(#paint76_linear_175_198)"/>
<path d="M934.56 142.393H937.499V143.45H929.88V142.393H933.28V131.185L930.04 133.12L929.48 132.222L933.48 129.749H934.56V142.393Z" fill="url(#paint77_linear_175_198)"/>
<path d="M934.56 165.186H937.499V166.243H929.88V165.186H933.28V153.978L930.04 155.912L929.48 155.015L933.48 152.542H934.56V165.186Z" fill="url(#paint78_linear_175_198)"/>
<path d="M971.7 5.63655H974.64V6.69356H967.02V5.63655H970.42V-5.57181L967.18 -3.63727L966.62 -4.53474L970.62 -7.00776H971.7V5.63655Z" fill="url(#paint79_linear_175_198)"/>
<path d="M970.5 15.5856C971.927 15.5856 973.006 16.1906 973.74 17.4005C974.486 18.5971 974.86 20.3389 974.86 22.6257C974.86 24.9126 974.486 26.661 973.74 27.8709C973.006 29.0808 971.927 29.6858 970.5 29.6858C969.087 29.6858 968.007 29.0808 967.26 27.8709C966.514 26.661 966.14 24.9126 966.14 22.6257C966.14 20.3522 966.514 18.6104 967.26 17.4005C968.007 16.1906 969.087 15.5856 970.5 15.5856ZM967.56 22.6257C967.56 24.2478 967.707 25.5176 968 26.435L972.44 17.5999C971.973 16.975 971.327 16.6626 970.5 16.6626C969.58 16.6626 968.86 17.1545 968.34 18.1384C967.82 19.109 967.56 20.6048 967.56 22.6257ZM970.5 28.5889C971.433 28.5889 972.16 28.1036 972.68 27.133C973.2 26.1491 973.46 24.6467 973.46 22.6257C973.46 20.9106 973.293 19.581 972.96 18.637L968.52 27.5518C969 28.2432 969.66 28.5889 970.5 28.5889Z" fill="url(#paint80_linear_175_198)"/>
<path d="M971.7 51.2221H974.64V52.2792H967.02V51.2221H970.42V40.0138L967.18 41.9483L966.62 41.0509L970.62 38.5778H971.7V51.2221Z" fill="url(#paint81_linear_175_198)"/>
<path d="M971.7 74.015H974.64V75.072H967.02V74.015H970.42V62.8066L967.18 64.7411L966.62 63.8437L970.62 61.3706H971.7V74.015Z" fill="url(#paint82_linear_175_198)"/>
<path d="M970.5 83.964C971.927 83.964 973.006 84.569 973.74 85.7789C974.486 86.9755 974.86 88.7173 974.86 91.0041C974.86 93.291 974.486 95.0394 973.74 96.2493C973.006 97.4593 971.927 98.0642 970.5 98.0642C969.087 98.0642 968.007 97.4593 967.26 96.2493C966.514 95.0394 966.14 93.291 966.14 91.0041C966.14 88.7306 966.514 86.9888 967.26 85.7789C968.007 84.569 969.087 83.964 970.5 83.964ZM967.56 91.0041C967.56 92.6262 967.707 93.896 968 94.8134L972.44 85.9783C971.973 85.3534 971.327 85.041 970.5 85.041C969.58 85.041 968.86 85.5329 968.34 86.5168C967.82 87.4874 967.56 88.9832 967.56 91.0041ZM970.5 96.9673C971.433 96.9673 972.16 96.482 972.68 95.5114C973.2 94.5275 973.46 93.0251 973.46 91.0041C973.46 89.289 973.293 87.9594 972.96 87.0154L968.52 95.9302C969 96.6216 969.66 96.9673 970.5 96.9673Z" fill="url(#paint83_linear_175_198)"/>
<path d="M971.7 119.601H974.64V120.658H967.02V119.601H970.42V108.392L967.18 110.327L966.62 109.429L970.62 106.956H971.7V119.601Z" fill="url(#paint84_linear_175_198)"/>
<path d="M971.7 142.393H974.64V143.45H967.02V142.393H970.42V131.185L967.18 133.12L966.62 132.222L970.62 129.749H971.7V142.393Z" fill="url(#paint85_linear_175_198)"/>
<path d="M970.5 152.342C971.927 152.342 973.006 152.947 973.74 154.157C974.486 155.354 974.86 157.096 974.86 159.383C974.86 161.669 974.486 163.418 973.74 164.628C973.006 165.838 971.927 166.443 970.5 166.443C969.087 166.443 968.007 165.838 967.26 164.628C966.514 163.418 966.14 161.669 966.14 159.383C966.14 157.109 966.514 155.367 967.26 154.157C968.007 152.947 969.087 152.342 970.5 152.342ZM967.56 159.383C967.56 161.005 967.707 162.274 968 163.192L972.44 154.357C971.973 153.732 971.327 153.419 970.5 153.419C969.58 153.419 968.86 153.911 968.34 154.895C967.82 155.866 967.56 157.362 967.56 159.383ZM970.5 165.346C971.433 165.346 972.16 164.86 972.68 163.89C973.2 162.906 973.46 161.404 973.46 159.383C973.46 157.667 973.293 156.338 972.96 155.394L968.52 164.309C969 165 969.66 165.346 970.5 165.346Z" fill="url(#paint86_linear_175_198)"/>
<path d="M971.7 187.979H974.64V189.036H967.02V187.979H970.42V176.771L967.18 178.705L966.62 177.808L970.62 175.335H971.7V187.979Z" fill="url(#paint87_linear_175_198)"/>
<path d="M970.5 197.928C971.927 197.928 973.006 198.533 973.74 199.743C974.486 200.94 974.86 202.681 974.86 204.968C974.86 207.255 974.486 209.003 973.74 210.213C973.006 211.423 971.927 212.028 970.5 212.028C969.087 212.028 968.007 211.423 967.26 210.213C966.514 209.003 966.14 207.255 966.14 204.968C966.14 202.695 966.514 200.953 967.26 199.743C968.007 198.533 969.087 197.928 970.5 197.928ZM967.56 204.968C967.56 206.59 967.707 207.86 968 208.777L972.44 199.942C971.973 199.317 971.327 199.005 970.5 199.005C969.58 199.005 968.86 199.497 968.34 200.481C967.82 201.451 967.56 202.947 967.56 204.968ZM970.5 210.931C971.433 210.931 972.16 210.446 972.68 209.475C973.2 208.492 973.46 206.989 973.46 204.968C973.46 203.253 973.293 201.923 972.96 200.979L968.52 209.894C969 210.586 969.66 210.931 970.5 210.931Z" fill="url(#paint88_linear_175_198)"/>
<path d="M1007.64 -7.2072C1009.07 -7.2072 1010.15 -6.60224 1010.88 -5.39232C1011.63 -4.1957 1012 -2.45395 1012 -0.167072C1012 2.11981 1011.63 3.86821 1010.88 5.07812C1010.15 6.28804 1009.07 6.893 1007.64 6.893C1006.23 6.893 1005.15 6.28804 1004.4 5.07812C1003.65 3.86821 1003.28 2.11981 1003.28 -0.167072C1003.28 -2.44065 1003.65 -4.1824 1004.4 -5.39232C1005.15 -6.60224 1006.23 -7.2072 1007.64 -7.2072ZM1004.7 -0.167072C1004.7 1.45502 1004.85 2.72477 1005.14 3.64218L1009.58 -5.19288C1009.11 -5.81779 1008.47 -6.13024 1007.64 -6.13024C1006.72 -6.13024 1006 -5.63829 1005.48 -4.6544C1004.96 -3.68381 1004.7 -2.18803 1004.7 -0.167072ZM1007.64 5.7961C1008.57 5.7961 1009.3 5.3108 1009.82 4.34021C1010.34 3.35632 1010.6 1.85389 1010.6 -0.167072C1010.6 -1.88223 1010.43 -3.21181 1010.1 -4.15581L1005.66 4.75902C1006.14 5.4504 1006.8 5.7961 1007.64 5.7961Z" fill="url(#paint89_linear_175_198)"/>
<path d="M1008.84 28.4293H1011.78V29.4864H1004.16V28.4293H1007.56V17.221L1004.32 19.1555L1003.76 18.2581L1007.76 15.785H1008.84V28.4293Z" fill="url(#paint90_linear_175_198)"/>
<path d="M1008.84 51.2221H1011.78V52.2792H1004.16V51.2221H1007.56V40.0138L1004.32 41.9483L1003.76 41.0509L1007.76 38.5778H1008.84V51.2221Z" fill="url(#paint91_linear_175_198)"/>
<path d="M1007.64 61.1712C1009.07 61.1712 1010.15 61.7762 1010.88 62.9861C1011.63 64.1827 1012 65.9245 1012 68.2113C1012 70.4982 1011.63 72.2466 1010.88 73.4565C1010.15 74.6664 1009.07 75.2714 1007.64 75.2714C1006.23 75.2714 1005.15 74.6664 1004.4 73.4565C1003.65 72.2466 1003.28 70.4982 1003.28 68.2113C1003.28 65.9378 1003.65 64.196 1004.4 62.9861C1005.15 61.7762 1006.23 61.1712 1007.64 61.1712ZM1004.7 68.2113C1004.7 69.8334 1004.85 71.1032 1005.14 72.0206L1009.58 63.1855C1009.11 62.5606 1008.47 62.2482 1007.64 62.2482C1006.72 62.2482 1006 62.7401 1005.48 63.724C1004.96 64.6946 1004.7 66.1904 1004.7 68.2113ZM1007.64 74.1745C1008.57 74.1745 1009.3 73.6892 1009.82 72.7186C1010.34 71.7347 1010.6 70.2323 1010.6 68.2113C1010.6 66.4962 1010.43 65.1666 1010.1 64.2226L1005.66 73.1374C1006.14 73.8288 1006.8 74.1745 1007.64 74.1745Z" fill="url(#paint92_linear_175_198)"/>
<path d="M1007.64 83.964C1009.07 83.964 1010.15 84.569 1010.88 85.7789C1011.63 86.9755 1012 88.7173 1012 91.0041C1012 93.291 1011.63 95.0394 1010.88 96.2493C1010.15 97.4593 1009.07 98.0642 1007.64 98.0642C1006.23 98.0642 1005.15 97.4593 1004.4 96.2493C1003.65 95.0394 1003.28 93.291 1003.28 91.0041C1003.28 88.7306 1003.65 86.9888 1004.4 85.7789C1005.15 84.569 1006.23 83.964 1007.64 83.964ZM1004.7 91.0041C1004.7 92.6262 1004.85 93.896 1005.14 94.8134L1009.58 85.9783C1009.11 85.3534 1008.47 85.041 1007.64 85.041C1006.72 85.041 1006 85.5329 1005.48 86.5168C1004.96 87.4874 1004.7 88.9832 1004.7 91.0041ZM1007.64 96.9673C1008.57 96.9673 1009.3 96.482 1009.82 95.5114C1010.34 94.5275 1010.6 93.0251 1010.6 91.0041C1010.6 89.289 1010.43 87.9594 1010.1 87.0154L1005.66 95.9302C1006.14 96.6216 1006.8 96.9673 1007.64 96.9673Z" fill="url(#paint93_linear_175_198)"/>
</g>
<defs>
<filter id="filter0_f_175_198" x="-526.19" y="-716.19" width="2141.38" height="1500.38" filterUnits="userSpaceOnUse" color-interpolation-filters="sRGB">
<feFlood flood-opacity="0" result="BackgroundImageFix"/>
<feBlend mode="normal" in="SourceGraphic" in2="BackgroundImageFix" result="shape"/>
<feGaussianBlur stdDeviation="200.095" result="effect1_foregroundBlur_175_198"/>
</filter>
<linearGradient id="paint0_linear_175_198" x1="84.5" y1="270" x2="84.5" y2="581.381" gradientUnits="userSpaceOnUse">
<stop stop-color="#F7DD43"/>
<stop offset="1" stop-color="#F7DD43" stop-opacity="0"/>
</linearGradient>
<linearGradient id="paint1_linear_175_198" x1="84.5" y1="270" x2="84.5" y2="581.381" gradientUnits="userSpaceOnUse">
<stop stop-color="#F7DD43"/>
<stop offset="1" stop-color="#F7DD43" stop-opacity="0"/>
</linearGradient>
<linearGradient id="paint2_linear_175_198" x1="84.5" y1="270" x2="84.5" y2="581.381" gradientUnits="userSpaceOnUse">
<stop stop-color="#F7DD43"/>
<stop offset="1" stop-color="#F7DD43" stop-opacity="0"/>
</linearGradient>
<linearGradient id="paint3_linear_175_198" x1="84.5" y1="270" x2="84.5" y2="581.381" gradientUnits="userSpaceOnUse">
<stop stop-color="#F7DD43"/>
<stop offset="1" stop-color="#F7DD43" stop-opacity="0"/>
</linearGradient>
<linearGradient id="paint4_linear_175_198" x1="84.5" y1="270" x2="84.5" y2="581.381" gradientUnits="userSpaceOnUse">
<stop stop-color="#F7DD43"/>
<stop offset="1" stop-color="#F7DD43" stop-opacity="0"/>
</linearGradient>
<linearGradient id="paint5_linear_175_198" x1="84.5" y1="270" x2="84.5" y2="581.381" gradientUnits="userSpaceOnUse">
<stop stop-color="#F7DD43"/>
<stop offset="1" stop-color="#F7DD43" stop-opacity="0"/>
</linearGradient>
<linearGradient id="paint6_linear_175_198" x1="84.5" y1="270" x2="84.5" y2="581.381" gradientUnits="userSpaceOnUse">
<stop stop-color="#F7DD43"/>
<stop offset="1" stop-color="#F7DD43" stop-opacity="0"/>
</linearGradient>
<linearGradient id="paint7_linear_175_198" x1="84.5" y1="270" x2="84.5" y2="581.381" gradientUnits="userSpaceOnUse">
<stop stop-color="#F7DD43"/>
<stop offset="1" stop-color="#F7DD43" stop-opacity="0"/>
</linearGradient>
<linearGradient id="paint8_linear_175_198" x1="84.5" y1="270" x2="84.5" y2="581.381" gradientUnits="userSpaceOnUse">
<stop stop-color="#F7DD43"/>
<stop offset="1" stop-color="#F7DD43" stop-opacity="0"/>
</linearGradient>
<linearGradient id="paint9_linear_175_198" x1="84.5" y1="270" x2="84.5" y2="581.381" gradientUnits="userSpaceOnUse">
<stop stop-color="#F7DD43"/>
<stop offset="1" stop-color="#F7DD43" stop-opacity="0"/>
</linearGradient>
<linearGradient id="paint10_linear_175_198" x1="84.5" y1="270" x2="84.5" y2="581.381" gradientUnits="userSpaceOnUse">
<stop stop-color="#F7DD43"/>
<stop offset="1" stop-color="#F7DD43" stop-opacity="0"/>
</linearGradient>
<linearGradient id="paint11_linear_175_198" x1="84.5" y1="270" x2="84.5" y2="581.381" gradientUnits="userSpaceOnUse">
<stop stop-color="#F7DD43"/>
<stop offset="1" stop-color="#F7DD43" stop-opacity="0"/>
</linearGradient>
<linearGradient id="paint12_linear_175_198" x1="84.5" y1="270" x2="84.5" y2="581.381" gradientUnits="userSpaceOnUse">
<stop stop-color="#F7DD43"/>
<stop offset="1" stop-color="#F7DD43" stop-opacity="0"/>
</linearGradient>
<linearGradient id="paint13_linear_175_198" x1="84.5" y1="270" x2="84.5" y2="581.381" gradientUnits="userSpaceOnUse">
<stop stop-color="#F7DD43"/>
<stop offset="1" stop-color="#F7DD43" stop-opacity="0"/>
</linearGradient>
<linearGradient id="paint14_linear_175_198" x1="84.5" y1="270" x2="84.5" y2="581.381" gradientUnits="userSpaceOnUse">
<stop stop-color="#F7DD43"/>
<stop offset="1" stop-color="#F7DD43" stop-opacity="0"/>
</linearGradient>
<linearGradient id="paint15_linear_175_198" x1="84.5" y1="270" x2="84.5" y2="581.381" gradientUnits="userSpaceOnUse">
<stop stop-color="#F7DD43"/>
<stop offset="1" stop-color="#F7DD43" stop-opacity="0"/>
</linearGradient>
<linearGradient id="paint16_linear_175_198" x1="84.5" y1="270" x2="84.5" y2="581.381" gradientUnits="userSpaceOnUse">
<stop stop-color="#F7DD43"/>
<stop offset="1" stop-color="#F7DD43" stop-opacity="0"/>
</linearGradient>
<linearGradient id="paint17_linear_175_198" x1="84.5" y1="270" x2="84.5" y2="581.381" gradientUnits="userSpaceOnUse">
<stop stop-color="#F7DD43"/>
<stop offset="1" stop-color="#F7DD43" stop-opacity="0"/>
</linearGradient>
<linearGradient id="paint18_linear_175_198" x1="84.5" y1="270" x2="84.5" y2="581.381" gradientUnits="userSpaceOnUse">
<stop stop-color="#F7DD43"/>
<stop offset="1" stop-color="#F7DD43" stop-opacity="0"/>
</linearGradient>
<linearGradient id="paint19_linear_175_198" x1="84.5" y1="270" x2="84.5" y2="581.381" gradientUnits="userSpaceOnUse">
<stop stop-color="#F7DD43"/>
<stop offset="1" stop-color="#F7DD43" stop-opacity="0"/>
</linearGradient>
<linearGradient id="paint20_linear_175_198" x1="84.5" y1="270" x2="84.5" y2="581.381" gradientUnits="userSpaceOnUse">
<stop stop-color="#F7DD43"/>
<stop offset="1" stop-color="#F7DD43" stop-opacity="0"/>
</linearGradient>
<linearGradient id="paint21_linear_175_198" x1="84.5" y1="270" x2="84.5" y2="581.381" gradientUnits="userSpaceOnUse">
<stop stop-color="#F7DD43"/>
<stop offset="1" stop-color="#F7DD43" stop-opacity="0"/>
</linearGradient>
<linearGradient id="paint22_linear_175_198" x1="84.5" y1="270" x2="84.5" y2="581.381" gradientUnits="userSpaceOnUse">
<stop stop-color="#F7DD43"/>
<stop offset="1" stop-color="#F7DD43" stop-opacity="0"/>
</linearGradient>
<linearGradient id="paint23_linear_175_198" x1="84.5" y1="270" x2="84.5" y2="581.381" gradientUnits="userSpaceOnUse">
<stop stop-color="#F7DD43"/>
<stop offset="1" stop-color="#F7DD43" stop-opacity="0"/>
</linearGradient>
<linearGradient id="paint24_linear_175_198" x1="84.5" y1="270" x2="84.5" y2="581.381" gradientUnits="userSpaceOnUse">
<stop stop-color="#F7DD43"/>
<stop offset="1" stop-color="#F7DD43" stop-opacity="0"/>
</linearGradient>
<linearGradient id="paint25_linear_175_198" x1="84.5" y1="270" x2="84.5" y2="581.381" gradientUnits="userSpaceOnUse">
<stop stop-color="#F7DD43"/>
<stop offset="1" stop-color="#F7DD43" stop-opacity="0"/>
</linearGradient>
<linearGradient id="paint26_linear_175_198" x1="84.5" y1="270" x2="84.5" y2="581.381" gradientUnits="userSpaceOnUse">
<stop stop-color="#F7DD43"/>
<stop offset="1" stop-color="#F7DD43" stop-opacity="0"/>
</linearGradient>
<linearGradient id="paint27_linear_175_198" x1="84.5" y1="270" x2="84.5" y2="581.381" gradientUnits="userSpaceOnUse">
<stop stop-color="#F7DD43"/>
<stop offset="1" stop-color="#F7DD43" stop-opacity="0"/>
</linearGradient>
<linearGradient id="paint28_linear_175_198" x1="84.5" y1="270" x2="84.5" y2="581.381" gradientUnits="userSpaceOnUse">
<stop stop-color="#F7DD43"/>
<stop offset="1" stop-color="#F7DD43" stop-opacity="0"/>
</linearGradient>
<linearGradient id="paint29_linear_175_198" x1="84.5" y1="270" x2="84.5" y2="581.381" gradientUnits="userSpaceOnUse">
<stop stop-color="#F7DD43"/>
<stop offset="1" stop-color="#F7DD43" stop-opacity="0"/>
</linearGradient>
<linearGradient id="paint30_linear_175_198" x1="84.5" y1="270" x2="84.5" y2="581.381" gradientUnits="userSpaceOnUse">
<stop stop-color="#F7DD43"/>
<stop offset="1" stop-color="#F7DD43" stop-opacity="0"/>
</linearGradient>
<linearGradient id="paint31_linear_175_198" x1="84.5" y1="270" x2="84.5" y2="581.381" gradientUnits="userSpaceOnUse">
<stop stop-color="#F7DD43"/>
<stop offset="1" stop-color="#F7DD43" stop-opacity="0"/>
</linearGradient>
<linearGradient id="paint32_linear_175_198" x1="84.5" y1="270" x2="84.5" y2="581.381" gradientUnits="userSpaceOnUse">
<stop stop-color="#F7DD43"/>
<stop offset="1" stop-color="#F7DD43" stop-opacity="0"/>
</linearGradient>
<linearGradient id="paint33_linear_175_198" x1="84.5" y1="270" x2="84.5" y2="581.381" gradientUnits="userSpaceOnUse">
<stop stop-color="#F7DD43"/>
<stop offset="1" stop-color="#F7DD43" stop-opacity="0"/>
</linearGradient>
<linearGradient id="paint34_linear_175_198" x1="84.5" y1="270" x2="84.5" y2="581.381" gradientUnits="userSpaceOnUse">
<stop stop-color="#F7DD43"/>
<stop offset="1" stop-color="#F7DD43" stop-opacity="0"/>
</linearGradient>
<linearGradient id="paint35_linear_175_198" x1="84.5" y1="270" x2="84.5" y2="581.381" gradientUnits="userSpaceOnUse">
<stop stop-color="#F7DD43"/>
<stop offset="1" stop-color="#F7DD43" stop-opacity="0"/>
</linearGradient>
<linearGradient id="paint36_linear_175_198" x1="84.5" y1="270" x2="84.5" y2="581.381" gradientUnits="userSpaceOnUse">
<stop stop-color="#F7DD43"/>
<stop offset="1" stop-color="#F7DD43" stop-opacity="0"/>
</linearGradient>
<linearGradient id="paint37_linear_175_198" x1="84.5" y1="270" x2="84.5" y2="581.381" gradientUnits="userSpaceOnUse">
<stop stop-color="#F7DD43"/>
<stop offset="1" stop-color="#F7DD43" stop-opacity="0"/>
</linearGradient>
<linearGradient id="paint38_linear_175_198" x1="84.5" y1="270" x2="84.5" y2="581.381" gradientUnits="userSpaceOnUse">
<stop stop-color="#F7DD43"/>
<stop offset="1" stop-color="#F7DD43" stop-opacity="0"/>
</linearGradient>
<linearGradient id="paint39_linear_175_198" x1="84.5" y1="270" x2="84.5" y2="581.381" gradientUnits="userSpaceOnUse">
<stop stop-color="#F7DD43"/>
<stop offset="1" stop-color="#F7DD43" stop-opacity="0"/>
</linearGradient>
<linearGradient id="paint40_linear_175_198" x1="84.5" y1="270" x2="84.5" y2="581.381" gradientUnits="userSpaceOnUse">
<stop stop-color="#F7DD43"/>
<stop offset="1" stop-color="#F7DD43" stop-opacity="0"/>
</linearGradient>
<linearGradient id="paint41_linear_175_198" x1="84.5" y1="270" x2="84.5" y2="581.381" gradientUnits="userSpaceOnUse">
<stop stop-color="#F7DD43"/>
<stop offset="1" stop-color="#F7DD43" stop-opacity="0"/>
</linearGradient>
<linearGradient id="paint42_linear_175_198" x1="84.5" y1="270" x2="84.5" y2="581.381" gradientUnits="userSpaceOnUse">
<stop stop-color="#F7DD43"/>
<stop offset="1" stop-color="#F7DD43" stop-opacity="0"/>
</linearGradient>
<linearGradient id="paint43_linear_175_198" x1="84.5" y1="270" x2="84.5" y2="581.381" gradientUnits="userSpaceOnUse">
<stop stop-color="#F7DD43"/>
<stop offset="1" stop-color="#F7DD43" stop-opacity="0"/>
</linearGradient>
<linearGradient id="paint44_linear_175_198" x1="84.5" y1="270" x2="84.5" y2="581.381" gradientUnits="userSpaceOnUse">
<stop stop-color="#F7DD43"/>
<stop offset="1" stop-color="#F7DD43" stop-opacity="0"/>
</linearGradient>
<linearGradient id="paint45_linear_175_198" x1="84.5" y1="270" x2="84.5" y2="581.381" gradientUnits="userSpaceOnUse">
<stop stop-color="#F7DD43"/>
<stop offset="1" stop-color="#F7DD43" stop-opacity="0"/>
</linearGradient>
<linearGradient id="paint46_linear_175_198" x1="84.5" y1="270" x2="84.5" y2="581.381" gradientUnits="userSpaceOnUse">
<stop stop-color="#F7DD43"/>
<stop offset="1" stop-color="#F7DD43" stop-opacity="0"/>
</linearGradient>
<linearGradient id="paint47_linear_175_198" x1="970.5" y1="-30" x2="970.5" y2="268.818" gradientUnits="userSpaceOnUse">
<stop stop-color="#F7DD43"/>
<stop offset="1" stop-color="#F7DD43" stop-opacity="0"/>
</linearGradient>
<linearGradient id="paint48_linear_175_198" x1="970.5" y1="-30" x2="970.5" y2="268.818" gradientUnits="userSpaceOnUse">
<stop stop-color="#F7DD43"/>
<stop offset="1" stop-color="#F7DD43" stop-opacity="0"/>
</linearGradient>
<linearGradient id="paint49_linear_175_198" x1="970.5" y1="-30" x2="970.5" y2="268.818" gradientUnits="userSpaceOnUse">
<stop stop-color="#F7DD43"/>
<stop offset="1" stop-color="#F7DD43" stop-opacity="0"/>
</linearGradient>
<linearGradient id="paint50_linear_175_198" x1="970.5" y1="-30" x2="970.5" y2="268.818" gradientUnits="userSpaceOnUse">
<stop stop-color="#F7DD43"/>
<stop offset="1" stop-color="#F7DD43" stop-opacity="0"/>
</linearGradient>
<linearGradient id="paint51_linear_175_198" x1="970.5" y1="-30" x2="970.5" y2="268.818" gradientUnits="userSpaceOnUse">
<stop stop-color="#F7DD43"/>
<stop offset="1" stop-color="#F7DD43" stop-opacity="0"/>
</linearGradient>
<linearGradient id="paint52_linear_175_198" x1="970.5" y1="-30" x2="970.5" y2="268.818" gradientUnits="userSpaceOnUse">
<stop stop-color="#F7DD43"/>
<stop offset="1" stop-color="#F7DD43" stop-opacity="0"/>
</linearGradient>
<linearGradient id="paint53_linear_175_198" x1="970.5" y1="-30" x2="970.5" y2="268.818" gradientUnits="userSpaceOnUse">
<stop stop-color="#F7DD43"/>
<stop offset="1" stop-color="#F7DD43" stop-opacity="0"/>
</linearGradient>
<linearGradient id="paint54_linear_175_198" x1="970.5" y1="-30" x2="970.5" y2="268.818" gradientUnits="userSpaceOnUse">
<stop stop-color="#F7DD43"/>
<stop offset="1" stop-color="#F7DD43" stop-opacity="0"/>
</linearGradient>
<linearGradient id="paint55_linear_175_198" x1="970.5" y1="-30" x2="970.5" y2="268.818" gradientUnits="userSpaceOnUse">
<stop stop-color="#F7DD43"/>
<stop offset="1" stop-color="#F7DD43" stop-opacity="0"/>
</linearGradient>
<linearGradient id="paint56_linear_175_198" x1="970.5" y1="-30" x2="970.5" y2="268.818" gradientUnits="userSpaceOnUse">
<stop stop-color="#F7DD43"/>
<stop offset="1" stop-color="#F7DD43" stop-opacity="0"/>
</linearGradient>
<linearGradient id="paint57_linear_175_198" x1="970.5" y1="-30" x2="970.5" y2="268.818" gradientUnits="userSpaceOnUse">
<stop stop-color="#F7DD43"/>
<stop offset="1" stop-color="#F7DD43" stop-opacity="0"/>
</linearGradient>
<linearGradient id="paint58_linear_175_198" x1="970.5" y1="-30" x2="970.5" y2="268.818" gradientUnits="userSpaceOnUse">
<stop stop-color="#F7DD43"/>
<stop offset="1" stop-color="#F7DD43" stop-opacity="0"/>
</linearGradient>
<linearGradient id="paint59_linear_175_198" x1="970.5" y1="-30" x2="970.5" y2="268.818" gradientUnits="userSpaceOnUse">
<stop stop-color="#F7DD43"/>
<stop offset="1" stop-color="#F7DD43" stop-opacity="0"/>
</linearGradient>
<linearGradient id="paint60_linear_175_198" x1="970.5" y1="-30" x2="970.5" y2="268.818" gradientUnits="userSpaceOnUse">
<stop stop-color="#F7DD43"/>
<stop offset="1" stop-color="#F7DD43" stop-opacity="0"/>
</linearGradient>
<linearGradient id="paint61_linear_175_198" x1="970.5" y1="-30" x2="970.5" y2="268.818" gradientUnits="userSpaceOnUse">
<stop stop-color="#F7DD43"/>
<stop offset="1" stop-color="#F7DD43" stop-opacity="0"/>
</linearGradient>
<linearGradient id="paint62_linear_175_198" x1="970.5" y1="-30" x2="970.5" y2="268.818" gradientUnits="userSpaceOnUse">
<stop stop-color="#F7DD43"/>
<stop offset="1" stop-color="#F7DD43" stop-opacity="0"/>
</linearGradient>
<linearGradient id="paint63_linear_175_198" x1="970.5" y1="-30" x2="970.5" y2="268.818" gradientUnits="userSpaceOnUse">
<stop stop-color="#F7DD43"/>
<stop offset="1" stop-color="#F7DD43" stop-opacity="0"/>
</linearGradient>
<linearGradient id="paint64_linear_175_198" x1="970.5" y1="-30" x2="970.5" y2="268.818" gradientUnits="userSpaceOnUse">
<stop stop-color="#F7DD43"/>
<stop offset="1" stop-color="#F7DD43" stop-opacity="0"/>
</linearGradient>
<linearGradient id="paint65_linear_175_198" x1="970.5" y1="-30" x2="970.5" y2="268.818" gradientUnits="userSpaceOnUse">
<stop stop-color="#F7DD43"/>
<stop offset="1" stop-color="#F7DD43" stop-opacity="0"/>
</linearGradient>
<linearGradient id="paint66_linear_175_198" x1="970.5" y1="-30" x2="970.5" y2="268.818" gradientUnits="userSpaceOnUse">
<stop stop-color="#F7DD43"/>
<stop offset="1" stop-color="#F7DD43" stop-opacity="0"/>
</linearGradient>
<linearGradient id="paint67_linear_175_198" x1="970.5" y1="-30" x2="970.5" y2="268.818" gradientUnits="userSpaceOnUse">
<stop stop-color="#F7DD43"/>
<stop offset="1" stop-color="#F7DD43" stop-opacity="0"/>
</linearGradient>
<linearGradient id="paint68_linear_175_198" x1="970.5" y1="-30" x2="970.5" y2="268.818" gradientUnits="userSpaceOnUse">
<stop stop-color="#F7DD43"/>
<stop offset="1" stop-color="#F7DD43" stop-opacity="0"/>
</linearGradient>
<linearGradient id="paint69_linear_175_198" x1="970.5" y1="-30" x2="970.5" y2="268.818" gradientUnits="userSpaceOnUse">
<stop stop-color="#F7DD43"/>
<stop offset="1" stop-color="#F7DD43" stop-opacity="0"/>
</linearGradient>
<linearGradient id="paint70_linear_175_198" x1="970.5" y1="-30" x2="970.5" y2="268.818" gradientUnits="userSpaceOnUse">
<stop stop-color="#F7DD43"/>
<stop offset="1" stop-color="#F7DD43" stop-opacity="0"/>
</linearGradient>
<linearGradient id="paint71_linear_175_198" x1="970.5" y1="-30" x2="970.5" y2="268.818" gradientUnits="userSpaceOnUse">
<stop stop-color="#F7DD43"/>
<stop offset="1" stop-color="#F7DD43" stop-opacity="0"/>
</linearGradient>
<linearGradient id="paint72_linear_175_198" x1="970.5" y1="-30" x2="970.5" y2="268.818" gradientUnits="userSpaceOnUse">
<stop stop-color="#F7DD43"/>
<stop offset="1" stop-color="#F7DD43" stop-opacity="0"/>
</linearGradient>
<linearGradient id="paint73_linear_175_198" x1="970.5" y1="-30" x2="970.5" y2="268.818" gradientUnits="userSpaceOnUse">
<stop stop-color="#F7DD43"/>
<stop offset="1" stop-color="#F7DD43" stop-opacity="0"/>
</linearGradient>
<linearGradient id="paint74_linear_175_198" x1="970.5" y1="-30" x2="970.5" y2="268.818" gradientUnits="userSpaceOnUse">
<stop stop-color="#F7DD43"/>
<stop offset="1" stop-color="#F7DD43" stop-opacity="0"/>
</linearGradient>
<linearGradient id="paint75_linear_175_198" x1="970.5" y1="-30" x2="970.5" y2="268.818" gradientUnits="userSpaceOnUse">
<stop stop-color="#F7DD43"/>
<stop offset="1" stop-color="#F7DD43" stop-opacity="0"/>
</linearGradient>
<linearGradient id="paint76_linear_175_198" x1="970.5" y1="-30" x2="970.5" y2="268.818" gradientUnits="userSpaceOnUse">
<stop stop-color="#F7DD43"/>
<stop offset="1" stop-color="#F7DD43" stop-opacity="0"/>
</linearGradient>
<linearGradient id="paint77_linear_175_198" x1="970.5" y1="-30" x2="970.5" y2="268.818" gradientUnits="userSpaceOnUse">
<stop stop-color="#F7DD43"/>
<stop offset="1" stop-color="#F7DD43" stop-opacity="0"/>
</linearGradient>
<linearGradient id="paint78_linear_175_198" x1="970.5" y1="-30" x2="970.5" y2="268.818" gradientUnits="userSpaceOnUse">
<stop stop-color="#F7DD43"/>
<stop offset="1" stop-color="#F7DD43" stop-opacity="0"/>
</linearGradient>
<linearGradient id="paint79_linear_175_198" x1="970.5" y1="-30" x2="970.5" y2="268.818" gradientUnits="userSpaceOnUse">
<stop stop-color="#F7DD43"/>
<stop offset="1" stop-color="#F7DD43" stop-opacity="0"/>
</linearGradient>
<linearGradient id="paint80_linear_175_198" x1="970.5" y1="-30" x2="970.5" y2="268.818" gradientUnits="userSpaceOnUse">
<stop stop-color="#F7DD43"/>
<stop offset="1" stop-color="#F7DD43" stop-opacity="0"/>
</linearGradient>
<linearGradient id="paint81_linear_175_198" x1="970.5" y1="-30" x2="970.5" y2="268.818" gradientUnits="userSpaceOnUse">
<stop stop-color="#F7DD43"/>
<stop offset="1" stop-color="#F7DD43" stop-opacity="0"/>
</linearGradient>
<linearGradient id="paint82_linear_175_198" x1="970.5" y1="-30" x2="970.5" y2="268.818" gradientUnits="userSpaceOnUse">
<stop stop-color="#F7DD43"/>
<stop offset="1" stop-color="#F7DD43" stop-opacity="0"/>
</linearGradient>
<linearGradient id="paint83_linear_175_198" x1="970.5" y1="-30" x2="970.5" y2="268.818" gradientUnits="userSpaceOnUse">
<stop stop-color="#F7DD43"/>
<stop offset="1" stop-color="#F7DD43" stop-opacity="0"/>
</linearGradient>
<linearGradient id="paint84_linear_175_198" x1="970.5" y1="-30" x2="970.5" y2="268.818" gradientUnits="userSpaceOnUse">
<stop stop-color="#F7DD43"/>
<stop offset="1" stop-color="#F7DD43" stop-opacity="0"/>
</linearGradient>
<linearGradient id="paint85_linear_175_198" x1="970.5" y1="-30" x2="970.5" y2="268.818" gradientUnits="userSpaceOnUse">
<stop stop-color="#F7DD43"/>
<stop offset="1" stop-color="#F7DD43" stop-opacity="0"/>
</linearGradient>
<linearGradient id="paint86_linear_175_198" x1="970.5" y1="-30" x2="970.5" y2="268.818" gradientUnits="userSpaceOnUse">
<stop stop-color="#F7DD43"/>
<stop offset="1" stop-color="#F7DD43" stop-opacity="0"/>
</linearGradient>
<linearGradient id="paint87_linear_175_198" x1="970.5" y1="-30" x2="970.5" y2="268.818" gradientUnits="userSpaceOnUse">
<stop stop-color="#F7DD43"/>
<stop offset="1" stop-color="#F7DD43" stop-opacity="0"/>
</linearGradient>
<linearGradient id="paint88_linear_175_198" x1="970.5" y1="-30" x2="970.5" y2="268.818" gradientUnits="userSpaceOnUse">
<stop stop-color="#F7DD43"/>
<stop offset="1" stop-color="#F7DD43" stop-opacity="0"/>
</linearGradient>
<linearGradient id="paint89_linear_175_198" x1="970.5" y1="-30" x2="970.5" y2="268.818" gradientUnits="userSpaceOnUse">
<stop stop-color="#F7DD43"/>
<stop offset="1" stop-color="#F7DD43" stop-opacity="0"/>
</linearGradient>
<linearGradient id="paint90_linear_175_198" x1="970.5" y1="-30" x2="970.5" y2="268.818" gradientUnits="userSpaceOnUse">
<stop stop-color="#F7DD43"/>
<stop offset="1" stop-color="#F7DD43" stop-opacity="0"/>
</linearGradient>
<linearGradient id="paint91_linear_175_198" x1="970.5" y1="-30" x2="970.5" y2="268.818" gradientUnits="userSpaceOnUse">
<stop stop-color="#F7DD43"/>
<stop offset="1" stop-color="#F7DD43" stop-opacity="0"/>
</linearGradient>
<linearGradient id="paint92_linear_175_198" x1="970.5" y1="-30" x2="970.5" y2="268.818" gradientUnits="userSpaceOnUse">
<stop stop-color="#F7DD43"/>
<stop offset="1" stop-color="#F7DD43" stop-opacity="0"/>
</linearGradient>
<linearGradient id="paint93_linear_175_198" x1="970.5" y1="-30" x2="970.5" y2="268.818" gradientUnits="userSpaceOnUse">
<stop stop-color="#F7DD43"/>
<stop offset="1" stop-color="#F7DD43" stop-opacity="0"/>
</linearGradient>
</defs>
</svg>
